<mxfile host="app.diagrams.net" modified="2022-09-02T15:00:19.161Z" agent="5.0 (Windows NT 10.0; Win64; x64) AppleWebKit/537.36 (KHTML, like Gecko) Chrome/100.0.4896.127 Safari/537.36" etag="t6XxSPUJVtngYohKAjwF" version="20.2.8" type="github">
  <diagram id="aljbA7QFwDnQFqvyRcfD" name="第 1 页">
    <mxGraphModel dx="782" dy="474" grid="1" gridSize="10" guides="1" tooltips="1" connect="1" arrows="1" fold="1" page="1" pageScale="1" pageWidth="827" pageHeight="1169" math="0" shadow="0">
      <root>
        <mxCell id="0" />
        <mxCell id="1" parent="0" />
        <mxCell id="HnTfcVpgJLb3TxWHtd6j-1" value="" style="whiteSpace=wrap;html=1;aspect=fixed;" vertex="1" parent="1">
          <mxGeometry x="100" y="20" width="410" height="410" as="geometry" />
        </mxCell>
        <mxCell id="HnTfcVpgJLb3TxWHtd6j-7" value="" style="group" vertex="1" connectable="0" parent="1">
          <mxGeometry x="120" y="60" width="180" height="80" as="geometry" />
        </mxCell>
        <mxCell id="HnTfcVpgJLb3TxWHtd6j-2" value="" style="rounded=1;whiteSpace=wrap;html=1;strokeWidth=2;fillWeight=4;hachureGap=8;hachureAngle=45;fillColor=#dae8fc;sketch=1;strokeColor=#6c8ebf;movable=1;resizable=1;rotatable=1;deletable=1;editable=1;connectable=1;" vertex="1" parent="HnTfcVpgJLb3TxWHtd6j-7">
          <mxGeometry width="180" height="80" as="geometry" />
        </mxCell>
        <mxCell id="HnTfcVpgJLb3TxWHtd6j-3" value="Thread" style="rounded=1;whiteSpace=wrap;html=1;strokeWidth=2;fillWeight=4;hachureGap=8;hachureAngle=45;fillColor=#dae8fc;sketch=1;strokeColor=#6c8ebf;movable=0;resizable=0;rotatable=0;deletable=0;editable=0;connectable=0;" vertex="1" parent="HnTfcVpgJLb3TxWHtd6j-7">
          <mxGeometry x="10" y="10" width="80" height="40" as="geometry" />
        </mxCell>
        <mxCell id="HnTfcVpgJLb3TxWHtd6j-4" value="Runable" style="ellipse;shape=doubleEllipse;whiteSpace=wrap;html=1;fillColor=#f8cecc;strokeColor=#b85450;movable=0;resizable=0;rotatable=0;deletable=0;editable=0;connectable=0;" vertex="1" parent="HnTfcVpgJLb3TxWHtd6j-7">
          <mxGeometry x="110" y="20" width="60" height="30" as="geometry" />
        </mxCell>
        <mxCell id="HnTfcVpgJLb3TxWHtd6j-8" value="" style="group" vertex="1" connectable="0" parent="1">
          <mxGeometry x="120" y="190" width="180" height="80" as="geometry" />
        </mxCell>
        <mxCell id="HnTfcVpgJLb3TxWHtd6j-9" value="" style="rounded=1;whiteSpace=wrap;html=1;strokeWidth=2;fillWeight=4;hachureGap=8;hachureAngle=45;fillColor=#dae8fc;sketch=1;strokeColor=#6c8ebf;movable=1;resizable=1;rotatable=1;deletable=1;editable=1;connectable=1;" vertex="1" parent="HnTfcVpgJLb3TxWHtd6j-8">
          <mxGeometry width="180" height="80" as="geometry" />
        </mxCell>
        <mxCell id="HnTfcVpgJLb3TxWHtd6j-10" value="Thread" style="rounded=1;whiteSpace=wrap;html=1;strokeWidth=2;fillWeight=4;hachureGap=8;hachureAngle=45;fillColor=#dae8fc;sketch=1;strokeColor=#6c8ebf;movable=0;resizable=0;rotatable=0;deletable=0;editable=0;connectable=0;" vertex="1" parent="HnTfcVpgJLb3TxWHtd6j-8">
          <mxGeometry x="10" y="10" width="80" height="40" as="geometry" />
        </mxCell>
        <mxCell id="HnTfcVpgJLb3TxWHtd6j-11" value="Runable" style="ellipse;shape=doubleEllipse;whiteSpace=wrap;html=1;fillColor=#f8cecc;strokeColor=#b85450;movable=0;resizable=0;rotatable=0;deletable=0;editable=0;connectable=0;" vertex="1" parent="HnTfcVpgJLb3TxWHtd6j-8">
          <mxGeometry x="110" y="20" width="60" height="30" as="geometry" />
        </mxCell>
        <mxCell id="HnTfcVpgJLb3TxWHtd6j-12" value="" style="group" vertex="1" connectable="0" parent="1">
          <mxGeometry x="130" y="310" width="180" height="80" as="geometry" />
        </mxCell>
        <mxCell id="HnTfcVpgJLb3TxWHtd6j-13" value="" style="rounded=1;whiteSpace=wrap;html=1;strokeWidth=2;fillWeight=4;hachureGap=8;hachureAngle=45;fillColor=#dae8fc;sketch=1;strokeColor=#6c8ebf;movable=1;resizable=1;rotatable=1;deletable=1;editable=1;connectable=1;" vertex="1" parent="HnTfcVpgJLb3TxWHtd6j-12">
          <mxGeometry width="180" height="80" as="geometry" />
        </mxCell>
        <mxCell id="HnTfcVpgJLb3TxWHtd6j-14" value="Thread" style="rounded=1;whiteSpace=wrap;html=1;strokeWidth=2;fillWeight=4;hachureGap=8;hachureAngle=45;fillColor=#dae8fc;sketch=1;strokeColor=#6c8ebf;movable=0;resizable=0;rotatable=0;deletable=0;editable=0;connectable=0;" vertex="1" parent="HnTfcVpgJLb3TxWHtd6j-12">
          <mxGeometry x="10" y="10" width="80" height="40" as="geometry" />
        </mxCell>
        <mxCell id="HnTfcVpgJLb3TxWHtd6j-15" value="Runable" style="ellipse;shape=doubleEllipse;whiteSpace=wrap;html=1;fillColor=#f8cecc;strokeColor=#b85450;movable=0;resizable=0;rotatable=0;deletable=0;editable=0;connectable=0;" vertex="1" parent="HnTfcVpgJLb3TxWHtd6j-12">
          <mxGeometry x="110" y="20" width="60" height="30" as="geometry" />
        </mxCell>
        <mxCell id="HnTfcVpgJLb3TxWHtd6j-16" value="新任务" style="ellipse;whiteSpace=wrap;html=1;strokeWidth=2;fillWeight=2;hachureGap=8;fillColor=#ffe6cc;fillStyle=dots;sketch=1;strokeColor=#d79b00;" vertex="1" parent="1">
          <mxGeometry x="370" y="60" width="120" height="60" as="geometry" />
        </mxCell>
        <mxCell id="HnTfcVpgJLb3TxWHtd6j-17" value="新任务进来只替代woker中的runable接口而已" style="text;html=1;strokeColor=none;fillColor=none;align=center;verticalAlign=middle;whiteSpace=wrap;rounded=0;" vertex="1" parent="1">
          <mxGeometry x="335" y="140" width="190" height="150" as="geometry" />
        </mxCell>
      </root>
    </mxGraphModel>
  </diagram>
</mxfile>
